<svg width="74" height="74" viewBox="0 0 74 74" fill="none" xmlns="http://www.w3.org/2000/svg">
<g clip-path="url(#clip0_199_253)">
<path d="M40.0834 24.6666C40.0834 17.8524 34.5642 12.3333 27.75 12.3333C20.9359 12.3333 15.4167 17.8524 15.4167 24.6666C15.4167 31.4808 20.9359 36.9999 27.75 36.9999C34.5642 36.9999 40.0834 31.4808 40.0834 24.6666ZM46.25 30.8333V36.9999H55.5V46.2499H61.6667V36.9999H70.9167V30.8333H61.6667V21.5833H55.5V30.8333H46.25ZM3.08337 55.4999V61.6666H52.4167V55.4999C52.4167 47.2983 35.9825 43.1666 27.75 43.1666C19.5175 43.1666 3.08337 47.2983 3.08337 55.4999Z" fill="white"/>
</g>
<defs>
<clipPath id="clip0_199_253">
<rect width="74" height="74" fill="white"/>
</clipPath>
</defs>
</svg>
