<svg width="34" height="25" viewBox="0 0 34 25" fill="none" xmlns="http://www.w3.org/2000/svg">
<path fill-rule="evenodd" clip-rule="evenodd" d="M24.2173 14.1101C26.3345 15.5474 27.8182 17.4947 27.8182 20.091V24.7274H34V20.091C34 16.7219 28.4827 14.7283 24.2173 14.1101Z" fill="black"/>
<path d="M12.3636 12.3636C15.7778 12.3636 18.5455 9.59594 18.5455 6.18182C18.5455 2.76769 15.7778 0 12.3636 0C8.94952 0 6.18182 2.76769 6.18182 6.18182C6.18182 9.59594 8.94952 12.3636 12.3636 12.3636Z" fill="black"/>
<path fill-rule="evenodd" clip-rule="evenodd" d="M21.6364 12.3636C25.0518 12.3636 27.8182 9.59727 27.8182 6.18182C27.8182 2.76636 25.0518 0 21.6364 0C20.91 0 20.23 0.154545 19.5809 0.370909C20.8636 1.96273 21.6364 3.98727 21.6364 6.18182C21.6364 8.37636 20.8636 10.4009 19.5809 11.9927C20.23 12.2091 20.91 12.3636 21.6364 12.3636Z" fill="black"/>
<path fill-rule="evenodd" clip-rule="evenodd" d="M12.3636 13.9091C8.23727 13.9091 0 15.98 0 20.0909V24.7272H24.7273V20.0909C24.7273 15.98 16.49 13.9091 12.3636 13.9091Z" fill="black"/>
</svg>
