<svg width="35" height="31" viewBox="0 0 35 31" fill="none" xmlns="http://www.w3.org/2000/svg">
<path d="M34.6061 26.6414C35.7277 28.5785 34.3198 31 32.0797 31H2.91996C0.675529 31 -0.725807 28.5748 0.393585 26.6414L14.9736 1.45222C16.0958 -0.485828 18.9063 -0.482316 20.0264 1.45222L34.6061 26.6414ZM17.5 21.4336C15.9563 21.4336 14.7049 22.6806 14.7049 24.2188C14.7049 25.7569 15.9563 27.0039 17.5 27.0039C19.0437 27.0039 20.2951 25.7569 20.2951 24.2188C20.2951 22.6806 19.0437 21.4336 17.5 21.4336ZM14.8463 11.4224L15.297 19.6568C15.3181 20.0421 15.6378 20.3438 16.0251 20.3438H18.9749C19.3622 20.3438 19.6819 20.0421 19.703 19.6568L20.1538 11.4224C20.1765 11.0062 19.844 10.6562 19.4257 10.6562H15.5743C15.156 10.6562 14.8235 11.0062 14.8463 11.4224Z" fill="black"/>
</svg>
