<svg width="40" height="37" viewBox="0 0 40 37" fill="none" xmlns="http://www.w3.org/2000/svg">
<path d="M38.75 4.93324H33.75L33.1906 3.83017C32.983 3.42045 32.6639 3.07586 32.269 2.83502C31.874 2.59418 31.419 2.46659 30.9547 2.46656H26.7656L24.6344 0.363725C23.8461 -0.413277 22.5 0.137099 22.5 1.23554V12.7857L32.5 16.3092V13.5666H35C37.7617 13.5666 40 11.3582 40 8.63325V6.16658C40 5.48516 39.4406 4.93324 38.75 4.93324ZM30 8.63325C29.3094 8.63325 28.75 8.08133 28.75 7.39991C28.75 6.71849 29.3094 6.16658 30 6.16658C30.6906 6.16658 31.25 6.71849 31.25 7.39991C31.25 8.08133 30.6906 8.63325 30 8.63325ZM7.5 14.7999C6.12187 14.7999 5 13.693 5 12.3333C5 10.9712 3.88047 9.86659 2.5 9.86659C1.11953 9.86659 0 10.9712 0 12.3333C0 15.5446 2.09609 18.2571 5 19.2785V35.7667C5 36.4481 5.55937 37 6.25 37H11.25C11.9406 37 12.5 36.4481 12.5 35.7667V27.1333H25V35.7667C25 36.4481 25.5594 37 26.25 37H31.25C31.9406 37 32.5 36.4481 32.5 35.7667V18.9278L20.7852 14.7999H7.5Z" fill="white"/>
</svg>
