<svg width="43" height="43" viewBox="0 0 43 43" fill="none" xmlns="http://www.w3.org/2000/svg">
<g clip-path="url(#clip0_146_159)">
<path d="M34.0417 5.375H8.95833C6.9875 5.375 5.375 6.9875 5.375 8.95833V34.0417C5.375 36.0125 6.9875 37.625 8.95833 37.625H34.0417C36.0125 37.625 37.625 36.0125 37.625 34.0417V8.95833C37.625 6.9875 36.0125 5.375 34.0417 5.375ZM15.2292 10.75C16.4654 10.75 17.4688 11.7533 17.4688 12.9896C17.4688 14.2258 16.4654 15.2292 15.2292 15.2292C13.9929 15.2292 12.9896 14.2258 12.9896 12.9896C12.9896 11.7533 13.9929 10.75 15.2292 10.75ZM19.7083 25.0833H17.9167V32.25H12.5417V25.0833H10.75V20.6042C10.75 18.6333 12.3625 17.0208 14.3333 17.0208H16.125C18.0958 17.0208 19.7083 18.6333 19.7083 20.6042V25.0833ZM27.7708 30.4583L23.2917 23.2917H32.25L27.7708 30.4583ZM23.2917 19.7083L27.7708 12.5417L32.25 19.7083H23.2917Z" fill="white"/>
</g>
<defs>
<clipPath id="clip0_146_159">
<rect width="43" height="43" fill="white"/>
</clipPath>
</defs>
</svg>
